:SAMPLES-PER-SECOND 30
:FULLY-SPECIFIED
:DEGREES
193
root  51.4148 37.7697 1.03507 -9.74393 -85.0026 29.6087
RightUpLeg  -45.4353 -21 7.14384
RightLeg  38.1911 -5.2873 -4.72131
RightFoot  -11.6392 -0.085893 -1.76022
RightToes  2.91037e-010 0 -3.6325e-017
Spine  68.942 -3.50574 3.16844
Spine1  18.5805 0.330871 -5.36057
HEad  -8.31673 4.85739 -7.37686
LeftShoulder1  5.12421 -22.1656 -12.8475
LeftArm  -72.9939 -63.4467 34.9601
LeftForeArm  -13.8122 5.85644 -1.71606
LeftHand  -0.244104 0.0205437 5.32207
RightShoulder  1.01619 14.1329 -3.01661
RightArm  -75.5302 65.113 -13.5994
RightForeArm  -27.4636 -2.14447 -1.2991
RightHand  0.215355 -1.8846 7.57741
LeftUpLeg  -44.4376 5.3769 -0.81205
LeftLeg  5.37663 16.1246 -5.38206
LeftFoot  9.97313 0.818731 -4.66064
LeftToes  -1.10052e-010 1.3781e-010 -2.1811e-011
194
root  52.4343 37.8036 0.930094 -10.6459 -84.4077 30.5524
RightUpLeg  -46.944 -21.5254 7.55282
RightLeg  37.3475 -4.58542 -4.01785
RightFoot  -9.57282 -0.0339168 -2.02603
RightToes  2.91037e-010 0 -3.6325e-017
Spine  69.1569 -4.08429 3.3204
Spine1  18.5212 -0.283263 -5.11708
HEad  -9.25782 4.32275 -6.59803
LeftShoulder1  5.15198 -21.9178 -13.1824
LeftArm  -73.199 -63.0758 35.6238
LeftForeArm  -14.238 5.84923 -1.72978
LeftHand  -0.244104 0.0205437 5.32207
RightShoulder  1.08699 14.6994 -2.77848
RightArm  -76.6312 65.19 -15.0593
RightForeArm  -27.8071 -1.49651 -1.11654
RightHand  0.173159 -2.21417 6.89665
LeftUpLeg  -45.7857 8.9541 -4.47107
LeftLeg  7.7936 13.7002 -4.35842
LeftFoot  7.42709 0.926733 -5.856
LeftToes  -1.10052e-010 1.3781e-010 -2.1811e-011
195
root  53.4096 37.8732 0.91909 -14.8506 -83.9729 35.3482
RightUpLeg  -48.6031 -21.8293 7.77331
RightLeg  35.441 -4.07613 -3.37315
RightFoot  -7.44283 0.0481813 -2.83229
RightToes  2.91037e-010 0 -3.6325e-017
Spine  68.9137 -4.24045 3.28181
Spine1  18.5007 -0.687838 -4.53587
HEad  -9.94543 3.11913 -5.59447
LeftShoulder1  5.16471 -21.8536 -13.2947
LeftArm  -74.059 -63.166 36.3873
LeftForeArm  -14.7222 5.8288 -1.67527
LeftHand  -0.244104 0.0205437 5.32207
RightShoulder  1.10724 14.8358 -2.7039
RightArm  -77.5709 64.9436 -16.1733
RightForeArm  -27.51 -0.821327 -1.05498
RightHand  0.158152 -2.38894 6.7587
LeftUpLeg  -49.2794 15.3171 -12.6918
LeftLeg  15.316 5.74063 -0.0768741
LeftFoot  5.02637 0.686112 -4.9758
LeftToes  -1.10052e-010 1.3781e-010 -2.1811e-011
196
root  54.3353 37.9321 1.06055 -20.4294 -84.2848 41.8137
RightUpLeg  -50.4383 -21.9821 8.48163
RightLeg  33.0224 -3.49799 -2.69925
RightFoot  -4.90681 0.208161 -4.28345
RightToes  2.91037e-010 0 -3.6325e-017
Spine  68.4861 -4.36656 3.41481
Spine1  18.0611 -0.812524 -4.58386
HEad  -10.4503 1.84635 -4.476
LeftShoulder1  5.11629 -21.7551 -13.1732
LeftArm  -73.9705 -63.3146 36.2605
LeftForeArm  -15.0575 5.83413 -1.75113
LeftHand  -0.244104 0.0205437 5.32207
RightShoulder  1.11168 14.9206 -2.70839
RightArm  -78.085 64.6261 -16.8313
RightForeArm  -26.7672 -0.770074 -1.16089
RightHand  0.173382 -2.28107 7.06903
LeftUpLeg  -51.2119 14.7371 -12.825
LeftLeg  24.9419 6.41662 3.9115
LeftFoot  2.01557 0.374505 -3.2622
LeftToes  -1.10052e-010 1.3781e-010 -2.1811e-011
197
root  55.2339 37.9867 1.33563 -26.6752 -84.9685 48.8697
RightUpLeg  -51.9916 -22.0388 9.27832
RightLeg  30.4735 -2.43189 -1.7901
RightFoot  -1.86626 0.396392 -4.9584
RightToes  2.91037e-010 0 -3.6325e-017
Spine  68.2085 -4.56486 3.84849
Spine1  17.4774 -0.822098 -4.67562
HEad  -11.0778 0.722512 -3.89726
LeftShoulder1  5.14159 -21.802 -13.2407
LeftArm  -73.0057 -63.3157 35.3741
LeftForeArm  -15.1457 5.85213 -1.8675
LeftHand  -0.244104 0.0205437 5.32207
RightShoulder  1.09318 14.8259 -2.78776
RightArm  -78.9566 64.4808 -17.8147
RightForeArm  -25.9644 -1.15924 -1.3931
RightHand  0.194534 -2.10916 7.41444
LeftUpLeg  -51.4603 12.0176 -9.50372
LeftLeg  35.0217 9.36634 7.32183
LeftFoot  -0.931259 0.0714434 -0.73817
LeftToes  -1.10052e-010 1.3781e-010 -2.1811e-011
198
root  56.1189 38.0532 1.67627 -33.8456 -85.4555 56.7272
RightUpLeg  -53.0447 -22.1485 9.82722
RightLeg  27.4315 -1.16646 -0.896061
RightFoot  1.3002 0.545371 -4.83715
RightToes  2.91037e-010 0 -3.6325e-017
Spine  68.2029 -4.73682 4.20985
Spine1  16.9276 -0.926172 -4.36329
HEad  -11.9453 -0.13746 -3.81565
LeftShoulder1  5.26188 -21.9269 -13.648
LeftArm  -72.4629 -63.3803 34.877
LeftForeArm  -15.1163 5.86802 -1.95584
LeftHand  -0.244104 0.0205437 5.32207
RightShoulder  1.08553 14.8342 -2.83839
RightArm  -80.2816 64.172 -19.2619
RightForeArm  -24.9543 -1.34516 -1.67545
RightHand  0.209547 -2.07528 7.8667
LeftUpLeg  -50.7929 9.83695 -7.32692
LeftLeg  42.911 9.62613 9.79989
LeftFoot  -2.32627 -0.029546 0.547056
LeftToes  -1.10052e-010 1.3781e-010 -2.1811e-011
199
root  56.9885 38.0845 2.06749 -41.5131 -85.9448 64.9078
RightUpLeg  -53.8302 -22.5945 10.8588
RightLeg  23.9971 0.525283 -0.0403685
RightFoot  4.19149 0.710886 -4.98369
RightToes  2.91037e-010 0 -3.6325e-017
Spine  68.3156 -4.81089 4.50681
Spine1  16.4463 -1.00906 -3.92635
HEad  -12.8628 -0.855191 -3.64664
LeftShoulder1  5.37308 -21.9815 -14.0763
LeftArm  -73.1197 -63.7754 35.2409
LeftForeArm  -15.0933 5.86859 -1.95601
LeftHand  -0.244104 0.0205437 5.32207
RightShoulder  1.09362 15.1434 -2.90168
RightArm  -81.0505 63.3442 -20.4304
RightForeArm  -23.9228 -1.14305 -1.86542
RightHand  0.21738 -2.22408 8.57026
LeftUpLeg  -48.4708 7.58612 -5.28521
LeftLeg  46.3662 8.46471 9.79808
LeftFoot  -3.29129 0.125743 -1.60371
LeftToes  -1.10052e-010 1.3781e-010 -2.1811e-011
200
root  57.8604 38.0847 2.51198 -50.9998 -86.6297 74.6732
RightUpLeg  -53.8398 -22.5802 11.2432
RightLeg  20.1701 1.3204 1.06784
RightFoot  7.34863 0.908629 -5.2124
RightToes  2.91037e-010 0 -3.6325e-017
Spine  68.6244 -4.88219 4.75019
Spine1  15.9758 -0.844943 -3.91991
HEad  -13.4432 -1.54621 -3.24554
LeftShoulder1  5.43553 -21.9967 -14.3297
LeftArm  -73.9955 -64.338 35.4791
LeftForeArm  -15.0831 5.85507 -1.87614
LeftHand  -0.244104 0.0205437 5.32207
RightShoulder  1.10775 15.4691 -2.93277
RightArm  -80.7137 62.4078 -20.795
RightForeArm  -23.7131 -0.852159 -1.82272
RightHand  0.202046 -2.5395 8.97093
LeftUpLeg  -44.7619 6.36347 -4.04623
LeftLeg  44.3607 6.97137 7.67416
LeftFoot  -6.51111 0.253891 -5.24342
LeftToes  -1.10052e-010 1.3781e-010 -2.1811e-011
201
root  58.7564 38.0806 2.97183 -59.6543 -87.0476 83.447
RightUpLeg  -51.4879 -19.199 6.15035
RightLeg  15.5331 -4.23263 2.77384
RightFoot  10.9967 0.949389 -4.44152
RightToes  2.91037e-010 0 -3.6325e-017
Spine  69.3086 -5.07044 4.74073
Spine1  15.554 -0.628028 -4.18721
HEad  -13.6878 -2.14123 -3.02078
LeftShoulder1  5.46196 -22.0658 -14.3788
LeftArm  -73.9548 -64.7049 34.8851
LeftForeArm  -15.159 5.84373 -1.82056
LeftHand  -0.244104 0.0205437 5.32207
RightShoulder  1.13096 15.4552 -2.78757
RightArm  -80.2181 61.977 -21.0745
RightForeArm  -24.5456 -0.711745 -1.58991
RightHand  0.164993 -2.89323 8.63167
LeftUpLeg  -41.4747 7.2574 -4.69803
LeftLeg  38.8381 5.72828 5.30762
LeftFoot  -11.2306 0.0889681 -6.13045
LeftToes  -1.10052e-010 1.3781e-010 -2.1811e-011
202
root  59.7065 38.0557 3.39491 -59.5563 -86.9002 83.4329
RightUpLeg  -48.7178 -14.688 -0.873787
RightLeg  10.3572 -12.3845 4.63819
RightFoot  13.3047 0.553363 -2.11948
RightToes  2.91037e-010 0 -3.6325e-017
Spine  69.9997 -5.38904 4.53084
Spine1  15.2949 -0.765225 -4.1669
HEad  -14.1823 -2.56333 -2.96126
LeftShoulder1  5.39129 -22.1385 -14.0102
LeftArm  -73.8592 -64.8384 34.5423
LeftForeArm  -15.3813 5.83389 -1.79359
LeftHand  -0.244104 0.0205437 5.32207
RightShoulder  1.16514 15.3383 -2.53896
RightArm  -80.4103 61.6783 -22.2737
RightForeArm  -25.3792 -0.789385 -1.39163
RightHand  0.147168 -3.05072 8.37877
LeftUpLeg  -40.6576 10.0446 -7.32349
LeftLeg  34.0681 4.40146 3.54919
LeftFoot  -13.7798 0.0166902 -2.78468
LeftToes  -1.10052e-010 1.3781e-010 -2.1811e-011
203
root  60.6939 38.012 3.75508 -56.3024 -86.548 80.3045
RightUpLeg  -46.9214 -12.4027 -5.16398
RightLeg  5.68903 -17.3668 6.25895
RightFoot  12.0096 -0.459728 2.72412
RightToes  2.91037e-010 0 -3.6325e-017
Spine  70.2619 -5.64183 4.27836
Spine1  15.2066 -1.07362 -4.14066
HEad  -15.2693 -2.96246 -2.44562
LeftShoulder1  5.21817 -22.1632 -13.2491
LeftArm  -75.2974 -64.988 35.6835
LeftForeArm  -15.4872 5.82756 -1.60709
LeftHand  -0.244104 0.0205437 5.32207
RightShoulder  1.19939 15.6346 -2.44356
RightArm  -80.5501 60.5742 -23.8069
RightForeArm  -25.4872 -1.04787 -1.41296
RightHand  0.170146 -2.94843 9.09881
LeftUpLeg  -42.4415 13.0975 -10.547
LeftLeg  32.7447 2.78573 2.27783
LeftFoot  -12.8586 0.090798 1.30161
LeftToes  -1.10052e-010 1.3781e-010 -2.1811e-011
